<?xml version="1.0" standalone="no"?>
<!DOCTYPE svg PUBLIC "-//W3C//DTD SVG 20010904//EN"
 "http://www.w3.org/TR/2001/REC-SVG-20010904/DTD/svg10.dtd">
<svg version="1.0" xmlns="http://www.w3.org/2000/svg"
 width="520.000000pt" height="520.000000pt" viewBox="0 0 520.000000 520.000000"
 preserveAspectRatio="xMidYMid meet">
<metadata>
Created by potrace 1.14, written by Peter Selinger 2001-2017
</metadata>
<g transform="translate(0.000000,520.000000) scale(0.100000,-0.100000)"
fill="#000000" stroke="none">
<path d="M4325 5141 c-3 -2 -467 -5 -1032 -7 -1046 -3 -1521 -8 -1718 -20
-129 -8 -421 -7 -550 1 -135 9 -243 9 -315 1 -112 -12 -154 -13 -195 -3 -48
11 -47 11 -110 3 -105 -13 -194 -58 -223 -112 -11 -21 -38 -178 -42 -249 -3
-49 -4 -340 -1 -450 1 -44 -1 -123 -4 -175 -11 -186 -15 -298 -21 -570 -6
-305 -8 -657 -4 -765 1 -38 2 -160 2 -270 -1 -206 3 -324 13 -385 10 -60 25
-110 35 -110 5 0 11 -8 14 -17 3 -10 25 -30 49 -45 54 -34 101 -38 515 -43
167 -1 305 -5 308 -8 9 -8 -36 -85 -59 -100 -41 -26 -108 -101 -129 -140 -40
-80 -40 -156 0 -206 20 -25 27 -42 21 -48 -7 -7 -1 -21 16 -41 42 -50 64 -124
53 -180 -27 -140 -28 -179 -5 -194 6 -4 12 -15 12 -25 1 -36 28 -88 58 -112
16 -14 54 -33 85 -43 103 -34 148 -96 168 -233 12 -89 85 -186 152 -205 75
-20 148 -7 189 35 14 14 35 26 47 26 11 1 37 3 56 4 40 3 120 -28 120 -46 0
-7 3 -9 7 -6 3 4 18 -10 31 -31 32 -46 70 -81 99 -88 12 -3 48 1 79 8 76 19
149 15 199 -12 11 -6 36 -39 55 -72 40 -71 94 -130 130 -145 19 -8 42 -6 90 7
119 31 171 64 256 161 12 13 46 39 77 57 46 28 66 34 131 37 42 2 86 10 98 16
13 7 45 14 73 16 49 3 52 5 135 92 96 101 100 103 235 115 51 4 109 17 115 25
3 3 19 13 35 22 48 26 77 95 79 189 1 53 5 81 14 85 18 7 15 18 -13 51 -21 24
-42 84 -38 104 1 3 3 19 6 35 8 50 28 119 39 132 5 7 7 17 4 22 -4 6 7 22 23
37 34 30 54 79 47 116 -11 61 46 120 128 132 67 11 147 56 181 105 26 36 30
52 30 105 0 78 -18 113 -67 133 -21 8 -38 19 -38 24 0 5 35 9 78 10 464 6 704
21 777 49 40 15 82 68 110 137 15 37 29 77 30 88 12 72 19 231 19 425 0 232
-7 381 -28 595 -14 154 -22 293 -16 315 0 3 3 52 5 110 2 58 6 155 10 215 4
61 8 142 10 180 2 39 6 124 10 190 7 118 14 326 17 495 2 126 -10 273 -27 312
-25 62 -85 102 -185 125 -8 2 -96 6 -195 9 -280 9 -356 10 -360 5z m430 -1680
c3 -5 2 -12 -3 -15 -5 -3 -9 1 -9 9 0 17 3 19 12 6z m-8 -173 c-2 -18 -4 -6
-4 27 0 33 2 48 4 33 2 -15 2 -42 0 -60z m0 -70 c-3 -7 -5 -2 -5 12 0 14 2 19
5 13 2 -7 2 -19 0 -25z m-1817 -1313 c168 -3 330 -7 360 -10 50 -3 421 -17
463 -16 21 0 21 -1 3 -44 -8 -19 -20 -60 -25 -90 -6 -31 -16 -61 -23 -68 -19
-18 -93 -67 -101 -67 -14 0 -152 -71 -172 -88 -49 -41 -84 -105 -75 -134 1 -5
3 -16 4 -25 1 -10 14 -37 30 -60 15 -23 26 -48 24 -55 -3 -7 6 -28 19 -46 12
-19 25 -50 29 -69 7 -39 0 -113 -13 -122 -4 -3 -15 -19 -23 -36 -8 -16 -18
-32 -22 -35 -4 -3 -9 -15 -11 -25 -7 -41 -40 -95 -71 -114 -22 -14 -50 -19
-101 -19 -95 -1 -111 -4 -180 -38 -42 -20 -86 -55 -145 -115 -90 -92 -119
-111 -195 -130 -36 -9 -49 -9 -54 0 -15 23 -82 29 -186 16 l-60 -7 -50 52
c-115 120 -131 134 -179 154 -40 17 -66 21 -121 18 -38 -2 -81 -3 -95 -3 -14
0 -36 -11 -50 -24 -20 -19 -33 -23 -67 -19 -22 2 -53 8 -67 14 -14 5 -26 7
-26 4 0 -3 -18 5 -40 17 -22 13 -40 28 -40 35 0 22 -94 114 -120 118 -56 9
-139 65 -146 99 -1 4 -2 8 -3 10 -2 1 -4 40 -6 86 -4 87 -17 119 -58 146 -12
8 -32 16 -44 18 -41 6 -62 36 -70 101 -4 33 -7 68 -5 76 1 8 4 74 5 145 2 127
3 131 32 169 17 22 51 48 80 62 29 14 76 47 106 75 l54 50 220 -7 c121 -3 234
-6 250 -6 164 2 621 15 623 17 2 2 11 1 20 -1 9 -2 154 -6 322 -9z"/>
</g>
</svg>
